# xmcd
#
# Track frame offsets:
#	150
#	21367
#	50002
#	68375
#	85272
#	99440
#	136422
#	156922
#
# Disc length: 2225 seconds
#
# Revision: 0
# Processed by: cddbd v1.5.2PL0 Copyright (c) Steve Scherf et al.
# Submitted via: EZCDAudioConverter 1.0.3.1
#
DISCID=6208af08
DTITLE=The Outlaw Blues Band
DYEAR=1968
DGENRE=Blues
TTITLE0=Tobacco road
TTITLE1=Tried to be a good boy
TTITLE2=How bad love can be
TTITLE3=I've got to have peace on my mind
TTITLE4=Lost in the blues
TTITLE5=Death dog of doom
TTITLE6=Sweet sixteen
TTITLE7=Two trains running
EXTD=
EXTT0=
EXTT1=
EXTT2=
EXTT3=
EXTT4=
EXTT5=
EXTT6=
EXTT7=
PLAYORDER=
